<?xml version="1.0" ?><svg height="60px" version="1.1" viewBox="0 0 60 60" width="60px" xmlns="http://www.w3.org/2000/svg" xmlns:xlink="http://www.w3.org/1999/xlink"><title/><desc/><defs/><g fill="none" fill-rule="evenodd" id="Page-1" stroke="none" stroke-width="1"><g id="Reddit" stroke="#000000" stroke-width="2" transform="translate(1.000000, 1.000000)"><path d="M24.8774,32.4994 C24.8774,30.6604 23.3704,29.1124 21.5104,29.1124 C19.6564,29.1124 18.0974,30.6604 18.0974,32.4994 C18.0974,34.3384 19.6564,35.8344 21.5104,35.8344 C23.3704,35.8344 24.8774,34.3384 24.8774,32.4994 L24.8774,32.4994 Z M37.0434,42.3034 C37.5764,41.7804 37.5764,40.9314 37.0434,40.4034 C36.5154,39.8794 35.6554,39.8744 35.1224,40.4034 C33.9304,41.5834 31.8904,42.1584 28.8864,42.1584 C28.8754,42.1584 28.8654,42.1634 28.8604,42.1634 C28.8494,42.1634 28.8394,42.1584 28.8294,42.1584 C25.8304,42.1584 23.7894,41.5834 22.5934,40.4034 C22.0654,39.8794 21.2054,39.8794 20.6714,40.4034 C20.1434,40.9264 20.1434,41.7804 20.6714,42.3034 C22.4014,44.0184 25.0694,44.8514 28.8294,44.8514 L28.8604,44.8514 L28.8864,44.8514 C32.6464,44.8514 35.3134,44.0184 37.0434,42.3034 L37.0434,42.3034 Z M39.6224,32.4994 C39.6224,30.6554 38.1154,29.1124 36.2564,29.1124 C34.3964,29.1124 32.8374,30.6554 32.8374,32.4994 C32.8374,34.3384 34.3964,35.8344 36.2564,35.8344 C38.1154,35.8344 39.6224,34.3384 39.6224,32.4994 L39.6224,32.4994 Z M47.7124,13.5174 C47.7124,12.2694 46.6874,11.2544 45.4284,11.2544 C44.1704,11.2544 43.1444,12.2694 43.1444,13.5174 C43.1444,14.7604 44.1704,15.7754 45.4284,15.7754 C46.6874,15.7754 47.7124,14.7604 47.7124,13.5174 L47.7124,13.5174 Z M53.7204,28.8374 C53.7204,30.9304 52.6124,32.7794 50.9444,33.8304 C51.0014,34.2604 51.0324,34.6904 51.0324,35.1304 C51.0324,39.2114 48.6344,43.0084 44.2894,45.8154 C40.1194,48.5134 34.6044,50.0004 28.7564,50.0004 C22.9094,50.0004 17.3934,48.5134 13.2294,45.8154 C8.8784,43.0084 6.4864,39.2114 6.4864,35.1304 C6.4864,34.6484 6.5224,34.1774 6.5844,33.7064 C5.0254,32.6394 4.0004,30.8524 4.0004,28.8374 C4.0004,25.5694 6.6774,22.9124 9.9764,22.9124 C11.3594,22.9124 12.6334,23.3844 13.6484,24.1714 C17.5594,21.7684 22.5834,20.4004 27.9224,20.2714 L31.1284,10.2134 C31.3464,9.5454 32.0454,9.1514 32.7344,9.3124 L40.9954,11.2384 C41.8294,9.6484 43.5024,8.5664 45.4284,8.5664 C48.1844,8.5664 50.4264,10.7834 50.4264,13.5174 C50.4264,16.2474 48.1844,18.4684 45.4284,18.4684 C42.7974,18.4684 40.6324,16.4384 40.4464,13.8754 L33.3404,12.2174 L30.7554,20.3174 C35.7124,20.6084 40.3374,21.9754 43.9784,24.2434 C45.0094,23.4154 46.3194,22.9124 47.7434,22.9124 C51.0374,22.9124 53.7204,25.5694 53.7204,28.8374 L53.7204,28.8374 Z" id="Stroke-46"/><path d="M54,58 L4,58 C1.791,58 0,56.209 0,54 L0,4 C0,1.791 1.791,0 4,0 L54,0 C56.209,0 58,1.791 58,4 L58,54 C58,56.209 56.209,58 54,58 L54,58 Z" id="Stroke-121" stroke-linejoin="round"/></g></g></svg>