<?xml version="1.0" ?><svg height="60px" version="1.1" viewBox="0 0 60 60" width="60px" xmlns="http://www.w3.org/2000/svg" xmlns:xlink="http://www.w3.org/1999/xlink"><title/><desc/><defs/><g fill="none" fill-rule="evenodd" id="Page-1" stroke="none" stroke-width="1"><g id="Steam" stroke="#000000" stroke-width="2" transform="translate(1.000000, 1.000000)"><path d="M41.4815,32.6667 C34.5795,32.6667 28.9625,27.0507 28.9625,20.1477 C28.9625,13.2457 34.5795,7.6297 41.4815,7.6297 C48.3835,7.6297 54.0005,13.2457 54.0005,20.1477 C54.0005,27.0507 48.3835,32.6667 41.4815,32.6667 L41.4815,32.6667 Z" id="Stroke-145"/><path d="M41.4815,26.8889 C37.7645,26.8889 34.7405,23.8649 34.7405,20.1479 C34.7405,16.4319 37.7645,13.4079 41.4815,13.4079 C45.1985,13.4079 48.2225,16.4319 48.2225,20.1479 C48.2225,23.8649 45.1985,26.8889 41.4815,26.8889 L41.4815,26.8889 Z" id="Stroke-146"/><path d="M19.921,30.8449 C20.36,30.7839 20.804,30.7409 21.259,30.7409 C26.569,30.7409 30.889,35.0609 30.889,40.3699 C30.889,40.8189 30.847,41.2579 30.788,41.6899 L43.975,32.4159 C43.169,32.5799 42.335,32.6669 41.482,32.6669 C34.579,32.6669 28.963,27.0509 28.963,20.1479 C28.963,19.0709 29.114,18.0309 29.371,17.0329 L19.921,30.8449 L19.921,30.8449 Z" id="Stroke-147"/><path d="M3.9259,28.8148 L20.2919,35.7548 C22.4779,36.5848 23.6479,38.8548 22.9209,40.8538 L22.9209,40.8538 C22.1889,42.8658 19.8099,43.8498 17.5949,43.0578 L3.9259,37.5818 L3.9259,28.8148 L3.9259,28.8148 Z" id="Stroke-148"/><path d="M21.2593,34.5926 C20.3593,34.5926 19.5603,34.7566 18.8013,35.1226 L20.2923,35.7556 C22.4773,36.5846 23.6483,38.8546 22.9203,40.8536 L22.9203,40.8536 C22.1883,42.8656 19.8093,43.8496 17.5953,43.0586 L15.9353,42.3936 C16.7723,44.5536 18.8043,46.1486 21.2593,46.1486 C24.4503,46.1486 27.0373,43.5616 27.0373,40.3706 C27.0373,37.1796 24.4503,34.5926 21.2593,34.5926 L21.2593,34.5926 Z" id="Stroke-149"/><path d="M21.2593,30.7407 C18.6133,30.7407 16.4013,31.6337 14.6593,33.3667 L20.2923,35.7547 C22.4773,36.5847 23.6483,38.8547 22.9203,40.8537 L22.9203,40.8537 C22.1883,42.8657 19.8093,43.8497 17.5953,43.0587 L11.6603,40.6807 C11.9743,45.7087 16.1533,49.9997 21.2593,49.9997 C26.5683,49.9997 30.8893,45.6807 30.8893,40.3707 C30.8893,35.0607 26.5683,30.7407 21.2593,30.7407 L21.2593,30.7407 Z" id="Stroke-150"/><path d="M54,58 L4,58 C1.791,58 0,56.209 0,54 L0,4 C0,1.791 1.791,0 4,0 L54,0 C56.209,0 58,1.791 58,4 L58,54 C58,56.209 56.209,58 54,58 L54,58 Z" id="Stroke-167" stroke-linejoin="round"/></g></g></svg>